# xmcd
#
# Track frame offsets: 
#        150
#        19485
#        46803
#        65041
#        82457
#        111649
#        137399
#        162815
#        176799
#        199269
#        213857
#
# Disc length: 3662 seconds
#
# Revision: 0
# Processed by: cddbd v1.5.2PL0 Copyright (c) Steve Scherf et al.
# Submitted via: ExactAudioCopy v0.99pb5
#
DISCID=a60e4c0b
DTITLE=Vasko The Patch - Emigranti
DYEAR=2010
DGENRE=Blues
TTITLE0=Boogie-Woogie ciala nosht
TTITLE1=Vzeh si beliata sus blusa
TTITLE2=Emigranti
TTITLE3=Doctor blues
TTITLE4=Zabraveniat manastir
TTITLE5=Blues za Wolkswagen bus
TTITLE6=Veren
TTITLE7=Domashna rakia blues
TTITLE8=Blues from the dark side of the wall
TTITLE9=Az otlitam
TTITLE10=Kaspichan blues
EXTD=
EXTT0=
EXTT1=
EXTT2=
EXTT3=
EXTT4=
EXTT5=
EXTT6=
EXTT7=
EXTT8=
EXTT9=
EXTT10=
PLAYORDER=
